<svg enable-background="new 0 0 100 100" height="512" viewBox="0 0 100 100" width="512" xmlns="http://www.w3.org/2000/svg"><path d="m20.415852 83.485786h13.991266v6.444919h-13.991266z" fill="#293b44"/><path d="m65.592812 83.485786h13.991266v6.444919h-13.991266z" fill="#293b44"/><path d="m81.6333694 10.0692921h-63.2667388c-3.4319601 0-6.2140903 2.7821302-6.2140903 6.2140903v63.2668648c0 3.4317093 2.7821302 6.2140884 6.2140903 6.2140884h63.2667389c3.4319 0 6.2140884-2.7823792 6.2140884-6.2140884v-63.2668648c0-3.4319601-2.7821884-6.2140903-6.2140885-6.2140903z" fill="#344e5c"/><path d="m81.1154327 79.032959h-62.2309322v-62.2319431h62.2309341v62.2319431zm-59.1238861-3.1070481h56.0168381v-56.0178489h-56.0168381z" fill="#4abaa4"/><g fill="#dad7dc"><path d="m76.110764 27.126122h6.902291v12.577619h-6.902291z"/><path d="m76.110764 56.129978h6.902291v12.577619h-6.902291z"/><path d="m56.5412178 46.5178337h-4.0264091c-.2524185-1.954052-1.0235748-3.7433472-2.1725655-5.231575l2.8510437-2.8512115c.5461998-.5461998.5465317-1.4319725 0-1.9785042s-1.4324722-.546196-1.9786682 0l-2.8509636 2.8508797c-1.4884796-1.1489906-3.2778549-1.9202347-5.2317429-2.1727371v-4.0263252c0-.7722435-.626236-1.3991489-1.3991508-1.3991489s-1.3991508.6269054-1.3991508 1.3991489v4.0263252c-1.9538879.2521706-3.7433472 1.0237465-5.2318268 2.1727371l-2.8507958-2.8508797c-.5461979-.546196-1.4322205-.5465317-1.9787521 0-.5465336.5465317-.5461979 1.4323044 0 1.9785042l2.8509598 2.8512115c-1.1489887 1.4882278-1.920063 3.277523-2.1724815 5.231575h-4.0264092c-.7724133 0-1.3991508.626236-1.3991508 1.3991508s.6267376 1.3991508 1.3991508 1.3991508h4.0264091c.2524185 1.9540558 1.0234928 3.7433472 2.1724815 5.2315788l-2.8509598 2.8512115c-.5461979.5458641-.5465336 1.4319687 0 1.9785004.5465317.5465355 1.4325542.5461998 1.9787521 0l2.8508797-2.8508759c1.4884796 1.1489906 3.2778549 1.9202309 5.2317429 2.1727333v4.0263252c0 .7722473.626236 1.3991547 1.3991508 1.3991547s1.3991508-.6269073 1.3991508-1.3991547v-4.0263252c1.9538879-.2525024 3.7432632-1.0237427 5.2316589-2.1727333l2.8510475 2.8508759c.546196.5461998 1.4321365.5465355 1.9786682 0 .5465317-.5465317.5461998-1.4326363 0-1.9785004l-2.8510437-2.8512115c1.1489906-1.4882317 1.9201469-3.277523 2.1725655-5.2315788h4.0264091c.7724953 0 1.3991508-.626236 1.3991508-1.3991508s-.6266553-1.3991508-1.3991506-1.3991508zm-14.8086243 9.4832802c-4.4575729 0-8.0838776-3.6261368-8.0838776-8.0841293s3.6263046-8.0841293 8.0838776-8.0841293c4.457489 0 8.0842972 3.6261368 8.0842972 8.0841293s-3.6268081 8.0841293-8.0842972 8.0841293z"/><path d="m41.7327614 43.0002022c-2.7154999 0-4.9167862 2.2011986-4.9167862 4.9167824 0 2.7152519 2.2012863 4.9167862 4.9167862 4.9167862 2.715416 0 4.9167023-2.2015343 4.9167023-4.9167862 0-2.7155838-2.2012864-4.9167824-4.9167023-4.9167824z"/></g></svg>